<svg width="24" height="25" viewBox="0 0 24 25" fill="none" xmlns="http://www.w3.org/2000/svg">
<g clip-path="url(#clip0_3_34)">
<path fill-rule="evenodd" clip-rule="evenodd" d="M18.384 23.279C18.706 23.507 19.121 23.564 19.491 23.424C19.861 23.283 20.133 22.967 20.215 22.584C21.084 18.5 23.192 8.163 23.983 4.448C24.043 4.168 23.943 3.877 23.723 3.69C23.503 3.503 23.198 3.449 22.926 3.55C18.733 5.102 5.81997 9.947 0.541971 11.9C0.206971 12.024 -0.0110294 12.346 -2.93924e-05 12.699C0.0119706 13.053 0.249971 13.36 0.592971 13.463C2.95997 14.171 6.06697 15.156 6.06697 15.156C6.06697 15.156 7.51897 19.541 8.27597 21.771C8.37097 22.051 8.58997 22.271 8.87897 22.347C9.16697 22.422 9.47497 22.343 9.68997 22.14C10.906 20.992 12.786 19.217 12.786 19.217C12.786 19.217 16.358 21.836 18.384 23.279ZM7.37397 14.602L9.05297 20.14L9.42597 16.633C9.42597 16.633 15.913 10.782 19.611 7.447C19.719 7.349 19.734 7.185 19.644 7.07C19.555 6.955 19.391 6.928 19.268 7.006C14.982 9.743 7.37397 14.602 7.37397 14.602Z" fill="white"/>
</g>
<defs>
<clipPath id="clip0_3_34">
<rect width="24" height="24" fill="white" transform="translate(0 0.5)"/>
</clipPath>
</defs>
</svg>
