<svg width="1024" height="768" viewBox="0 0 1024 768" fill="none" xmlns="http://www.w3.org/2000/svg">
<path fill-rule="evenodd" clip-rule="evenodd" d="M259.983 332.192C292.897 340.969 325.454 351.289 358.092 361.03C361.764 362.126 361.754 362.31 365.038 360.332C373.97 354.952 383.072 349.842 392.279 344.946C420.048 330.18 448.594 318.365 479.17 310.848C500.843 305.52 522.878 301.295 544.983 298.192C542.735 305.109 538.373 312.32 532.983 317.192C528.804 320.968 523.107 323.032 517.942 325.057C502.591 331.078 486.518 335.289 471.43 341.982C456.041 348.809 446.319 363.001 443.397 379.467C442.85 382.547 442.883 383.016 445.411 384.57C448.244 386.313 451.688 387.333 454.812 388.397C479.895 396.94 506.345 402.201 532.282 407.386C546.05 410.139 559.869 412.697 573.759 414.759C582.378 416.039 591.487 417.756 600.242 417.245C637.761 415.056 659.999 370.398 670.983 340.192C704.884 358.556 743.776 370.293 781.747 375.956C827.791 382.823 885.791 383.2 922.185 349.271C939.519 333.111 950.163 311.23 957.983 289.192C932.475 287.005 907.08 283.179 881.782 279.309C877.365 278.633 872.95 277.945 868.536 277.245C866.761 276.963 864.033 275.966 862.217 276.231C859.46 276.631 855.9 279.621 853.459 280.946C834.74 291.105 815.388 300.421 795.307 307.57C784.547 311.4 773.375 314.788 761.966 315.922C749.728 317.14 737.196 314.637 725.377 311.649C695.728 304.153 664.711 291.47 639.983 273.192C633.968 281.769 623.11 287.579 612.756 283.44C601.417 278.907 595.113 267.019 589.037 257.242C586.825 253.682 582.653 253.657 578.537 252.607C567.04 249.674 555.402 247.283 543.707 245.299C505.301 238.784 465.811 236.574 427.049 241.068C389.225 245.454 351.987 257.655 318.636 275.994C304.128 283.972 290.002 293.216 277.947 304.637C270.333 311.85 261.436 321.29 259.983 332.192Z" fill="#FF5678"/>
<path fill-rule="evenodd" clip-rule="evenodd" d="M374.245 84.1244C386.116 88.0984 396.825 93.9374 407.287 100.736C412.385 104.049 417.485 107.926 423.119 110.272C428.121 112.353 433.581 113.3 438.718 115.01C461.733 122.672 486.706 124.213 510.11 116.847C533.967 109.338 554.217 93.2124 578.889 88.1544C602.951 83.2214 627.421 84.3124 650.526 93.2454C661.749 97.5844 671.213 104.875 680.79 111.975C689.968 118.779 699.597 125.49 706.701 134.573C713.679 143.493 717.707 154.593 720.781 165.387C722.554 171.612 723.372 178.04 723.244 184.515C723.156 189.045 720.76 193.421 722.169 197.8C724.146 203.941 727.024 208.455 726.282 215.292C725.683 220.798 723.18 225.543 719.268 229.408C715.254 233.373 710.451 236.096 705.1 237.816C701.053 239.117 699.774 238.788 697.421 235.26C690.836 241.222 686.132 248.756 677.881 252.694C673.785 254.65 669.59 255.592 665.077 255.879C661.658 256.096 658.522 256.195 655.634 258.274C652.603 260.457 641.523 270.194 645.762 274.024C648.235 276.258 654.003 276.701 657.148 277.985C661.549 279.781 665.781 281.984 669.775 284.563C684.385 293.998 698.928 299.884 715.823 304.107C733.363 308.491 751.048 310.863 769.144 310.928C785.582 310.988 802.804 309.739 818.047 303.084C825.364 299.89 832.426 295.654 838.411 290.35C844.384 285.058 848.05 277.699 854.187 272.774C858.159 269.586 854.485 264.678 853.258 260.302C850.762 251.4 848.852 241.266 848.094 232.061C847.358 223.119 846.128 214.203 844.539 205.355C842.856 195.975 839.348 187.244 836.87 178.083C835.043 171.328 833.205 163.4 835.323 156.502C836.374 153.08 838.704 149.464 842.016 147.831C844.978 146.37 846.804 147.766 849.458 147.609C857.245 147.151 863.257 150.326 869.133 155.521C872.308 158.328 875.986 160.786 879.01 163.726C881.363 166.012 881.92 169.701 884.428 171.728C888.545 161.221 892.858 147.864 906.822 153.873C917.869 158.628 919.29 176.494 924.649 185.808C927.662 183.328 928 178.441 929.172 174.984C930.385 171.406 932.428 167.627 935.308 165.096C941.6 159.568 949.275 161.788 953.606 168.41C955.921 171.95 954.543 176.014 956.841 179.51C959.121 182.977 958.409 187.028 959.34 191.066C960.52 196.184 961.946 201.227 962.897 206.403C963.337 208.796 963.976 211.494 963.865 213.95C963.818 214.968 962.994 216.719 963.248 217.724C963.579 219.039 965.141 220.222 965.713 221.523C966.484 223.271 966.198 224.542 966.285 226.345C966.444 229.591 967.312 232.254 968.244 235.46C970.592 243.535 969.997 253.756 966.52 261.403C964.717 265.367 963.453 268.25 962.917 272.492C962.571 275.231 960.507 277.726 960.631 280.67C960.804 284.767 971.764 291.085 963.112 293.803C959.498 294.938 958.724 294.345 957.737 298.473C956.757 302.571 955.647 306.558 954.04 310.462C950.632 318.747 945.591 326.165 940.835 333.71C935.687 341.877 930.282 349.769 922.676 355.859C915.622 361.506 907.538 366.1 899.487 370.165C882.525 378.729 863.652 383.51 844.608 383.047C824.299 382.552 803.7 384.471 783.575 381.022C762.969 377.49 742.865 371.644 722.344 367.723C713.125 365.961 704.532 364.04 696.145 359.69C687.634 355.278 679.144 350.772 671.358 345.146C665.994 358.001 663.106 371.401 655.416 383.227C648.704 393.548 640.608 403.252 630.699 410.653C621.02 417.884 608.373 423.292 596.185 423.757C592.466 423.898 586.748 422.266 584.08 425.068C582.744 426.47 582.608 429.256 582.078 431.056C581.177 434.12 579.87 437.109 579.145 440.222C578.045 444.942 582.477 445.015 586.361 446.931C591.569 449.501 596.655 452.308 601.69 455.199C606.834 458.154 611.739 461.553 616.891 464.462C621.315 466.959 625.883 468.886 630.142 471.715C640.207 478.403 651.235 482.863 662.043 488.156C673.614 493.824 684.867 500.147 696.238 506.201C718.76 518.194 741.351 530.64 762.615 544.775C772.541 551.373 782.083 558.243 792.262 564.482C801.756 570.303 812.594 577.118 818.638 586.668C823.351 594.116 830.123 597.644 837.916 601.703C842.509 604.095 845.35 604.548 849.08 600.633C852.741 596.791 856.279 592.97 860.142 589.304C875.979 574.275 889.528 557.824 902.735 540.519C912.54 527.671 925.984 512.245 943.992 515.06C949.391 515.905 952.976 518.417 956.969 521.952C959.678 524.351 964.573 525.92 966.379 529.026C967.422 530.82 967.859 533.119 968.909 535.001C970.009 536.969 971.375 538.888 972.11 541.04C973.352 544.682 970.673 550.468 973.345 553.434C975.301 555.606 973.482 560.721 972.948 563.175C971.962 567.715 971.124 572.322 969.564 576.706C968.335 580.156 967.128 584.885 964.54 587.578C962.231 589.981 959.523 589.745 960.126 593.906C957.627 593.074 955.479 599.057 954.774 600.566C952.88 604.619 950.812 607.95 947.762 611.31C940.051 619.803 931.223 625.55 921.222 630.949C917.574 632.918 910.009 635.658 909.161 640.21C908.348 644.582 910.843 648.132 909.089 652.802C905.442 662.517 897.243 672.76 890.551 680.598C884.532 687.648 878.694 692.36 869.042 690.704C860.491 689.239 852.031 684.875 844.915 680.036C836.345 674.207 827.265 669.824 818.009 665.197C813.454 662.921 808.896 660.819 804.948 657.548C801.279 654.508 798.095 651.084 793.842 648.826C790.812 647.217 786.855 646.078 785.592 642.497C784.215 638.592 786.73 636.155 788.87 633.356C790.307 631.477 791.101 631.186 789.861 629.677C788.87 628.473 786.151 627.452 784.785 626.719C781.48 624.945 778.177 623.394 774.644 625.343C770.703 627.517 768.009 632.012 765.056 635.279C761.518 639.191 757.543 642.757 753.663 646.325C745.966 653.404 737.532 659.747 730.014 666.992C728.294 668.648 724.908 672.848 722.071 672.053C719.976 671.467 721.078 670.223 719.998 669.265C718.836 668.235 717.849 668.222 716.361 667.107C712.66 664.336 711.53 659.021 707.648 656.152C703.659 653.203 698.732 651.083 694.412 648.656C674.694 637.576 655.486 625.626 637.463 611.93C628.426 605.063 619.89 597.611 611.136 590.397C607.016 587.002 602.837 583.281 598.255 580.522C594.075 578.006 589.431 576.248 585.173 573.834C576.051 568.663 566.292 564.705 557.262 559.367C553.016 556.857 549.869 553.485 545.92 550.689C542.462 548.242 539.583 546.792 537.01 543.228C535.787 545.92 532.432 542.408 531.221 541.584C530.267 540.933 529.045 540.474 528.161 539.731C527.271 538.983 526.733 537.318 526.057 536.798C524.561 535.646 522.823 535.909 520.814 535.188C518.129 534.225 514.588 531.659 512.524 529.699C511.095 528.344 513.426 529.41 511.012 527.748C509.889 526.974 507.962 526.766 506.7 525.946C503.704 524.002 500.953 521.505 498.092 519.359C492.909 515.474 486.206 511.937 483.264 505.879C467.461 518.855 452.2 532.938 434.053 542.649C416.525 552.029 396.251 556.288 377.536 562.76C358.279 569.418 338.83 576.111 319.25 581.755C309.731 584.498 299.915 586.468 290.186 588.322C280.206 590.224 270.364 589.657 260.35 590.732C255.427 591.26 250.498 591.089 245.577 591.566C241.045 592.005 236.65 593.156 232.15 593.755C228.183 594.283 223.709 593.837 219.894 594.916C217.095 595.707 213.398 598.513 211.348 594.862C209.846 597.111 209.369 596.049 207.413 595.906C205.327 595.752 204.699 595.842 202.657 596.233C199.336 596.867 195.671 597.112 192.852 594.503C191.562 599.178 179.063 594.927 177.572 591.837C175.893 596.786 160.71 592.516 160.49 587.871C160.305 583.939 162.916 578.285 163.994 574.591C165.753 568.562 167.933 562.665 170.211 556.816C172.621 550.631 175.092 544.466 177.571 538.307C178.66 535.601 179.689 532.852 180.932 530.212C181.542 528.917 183.129 526.985 183.103 525.489C183.026 521.119 175.193 520.808 171.881 519.718C169.376 518.893 166.833 518.023 164.454 516.88C162.727 516.05 160.655 514.144 158.744 513.88C154.365 513.274 155.357 518.23 154.881 521.275C154.27 525.193 152.111 527.208 147.961 527.237C143.113 527.27 129.288 518.933 126.68 525.288C125.457 528.265 125.789 533.975 125.341 537.174C124.605 542.418 124.897 547.633 125.615 552.862C126.794 561.472 130.685 572.363 126.305 580.616C117.56 597.099 87.2356 587.165 77.5566 576.791C63.3026 561.512 63.7186 538.614 70.5486 520.115C73.8696 511.118 78.6806 501.477 84.9696 494.16C87.7636 490.909 93.0786 487.772 94.0006 483.305C94.7666 479.6 91.8866 476.186 92.4926 472.389C93.2126 467.882 97.0256 465.149 100.294 462.415C103.696 459.57 107.006 456.469 110.883 454.265C119.854 449.168 130.028 452.245 138.947 455.988C148.7 460.081 158.043 465.57 166.755 471.545C171.068 474.502 174.725 477.163 179.839 478.594C183.76 479.692 187.721 480.77 191.66 481.8C195.377 482.772 198.51 483.495 201.119 480.282C203.99 476.746 204.941 475.317 209.91 475.165C215.202 475.004 220.498 475.299 225.785 475.501C226.902 475.544 229.438 475.196 230.319 476.127C231.104 476.956 229.967 478.686 230.698 479.212C231.852 480.04 238.408 470.779 238.969 478.276C239.327 474.637 243.146 476.399 245.275 476.878C246.05 477.052 246.823 477.258 247.59 477.428C248.422 477.15 249.114 477.363 249.661 478.065C250.536 478.252 251.128 477.918 251.437 477.065C260.689 476.931 270.022 477.514 279.297 477.465C290.023 477.408 300.81 477.303 311.435 475.75C315.371 475.174 319.309 474.38 323.252 473.897C325.059 473.677 326.575 473.869 328.338 473.986C328.981 474.108 329.564 474.374 330.088 474.786C330.357 474.256 330.758 473.855 331.29 473.582C338.038 471.606 344.98 470.266 351.837 468.541C356.637 467.334 360.661 466.402 365.439 466.061L366.345 466.004L368.265 466.57C368.546 465.885 369.003 465.351 369.636 464.968C371.194 464.33 372.517 464.083 374.196 463.912C380.879 463.23 387.436 463.3 393.753 462.323C397.08 461.808 409.236 459.923 411.478 463.222C413.197 459.205 425.575 464.674 429.2 462.301C423.575 454.629 421.124 446.42 419.532 437.143C417.797 427.037 416.707 416.406 419.273 406.34C421.637 397.065 426.788 387.545 433.828 381.02C440.636 374.709 442.233 367.16 446.776 359.372C456.24 343.144 471.833 333.23 489.204 327.243C498.664 323.983 508.281 321.27 517.823 318.274C525.573 315.841 532.062 312.359 535.982 304.916C502.982 304.916 471.405 315.151 441.189 327.566C426.158 333.741 411.194 340.167 396.348 346.776C388.791 350.139 381.318 353.736 374.268 358.079L372.319 359.28C370.047 360.685 367.789 362.124 365.671 363.744C365.166 364.131 362.409 365.739 362.247 366.276C360.987 370.452 367.928 377.168 369.73 380.75C372.183 385.628 374.586 391.332 374.888 396.831C375.247 403.408 371.053 406.699 364.59 405.349C356.686 403.698 350.702 397.111 344.426 392.531C343.026 396.734 344.834 401.569 345.814 405.665C347.158 411.283 348.494 416.986 349.45 422.686C350.801 430.743 349.841 439.835 341.825 444.057C321.398 454.814 310.984 426.432 306.836 412.254C304.032 414.276 304.359 421.685 303.843 424.783C302.852 430.744 301.715 437.144 299.068 442.618C297.04 446.81 293.594 451.705 288.522 452.157C283.021 452.647 278.587 447.917 276.123 443.552C271.865 436.012 270.861 427.605 270.525 419.153C270.45 417.291 270.99 400.05 269.108 399.559C263.574 409.474 260.487 420.499 253.986 429.955C248.289 438.242 239.716 443.862 232.013 434.281C220.084 419.443 223.901 398 228.788 381.306C231.63 371.598 235.498 362.331 240.713 353.65C242.875 350.049 245.492 347.347 248.177 344.173C250.391 341.555 251.243 340.326 250.288 337.309C249.732 335.55 249.206 335.486 249.702 333.541C250.059 332.146 251.129 330.429 251.74 329.133C253.488 325.43 255.323 321.776 257.464 318.282C262.041 310.819 268.273 304.61 274.822 298.852L275.48 298.276L275.449 298.305C275.027 298.693 278.091 296.359 278.028 296.353L278.011 296.36L278.092 296.312C279.222 295.573 279.652 293.144 280.938 295.312L281.032 295.474C281.233 292.284 283.919 290.471 286.223 288.684C287.081 288.018 287.939 287.093 288.981 286.695C289.706 286.418 291.392 286.69 291.917 286.303C292.938 285.552 293.437 284.064 294.407 283.179C295.379 282.294 296.721 281.88 297.827 281.205C300.538 279.55 303.029 277.524 305.674 275.76C311.292 272.012 317.158 268.635 323.168 265.558C335.812 259.083 349.232 253.873 362.662 249.278C374.498 245.228 386.766 241.476 398.923 238.526C411.401 235.497 424.515 236.251 437.259 235.006C463.233 232.467 490.65 232.979 516.612 235.513C529.336 236.755 541.988 238.697 554.537 241.125C566.708 243.479 579.367 246.158 590.178 252.522C592.482 253.878 596.644 258.227 599.345 258.067C601.619 257.933 603.592 253.738 604.66 252.085C607.199 248.159 610.39 244.551 612.547 240.414C615.202 235.319 616.562 229.592 618.56 224.231C609.297 225.508 599.568 226.336 590.677 222.787C582.626 219.573 577.2 213.15 571.186 207.219C564.851 200.972 558.066 196.739 549.004 196.165C538.724 195.513 529.453 199.202 519.997 202.64C500.019 209.904 480.045 217.885 459.485 223.364C449.437 226.042 439.106 228.156 428.694 228.632C423.393 228.873 418.028 228.635 412.785 229.614C410.611 230.019 409.959 230.358 408.24 229.398C408.473 229.529 406.052 225.503 405.572 227.07C405.109 228.58 405.866 229.76 404.543 230.898C402.989 232.234 399.617 231.584 397.817 231.43C395.121 231.2 392.972 230.285 390.376 229.676C386.363 228.735 381.866 229.355 377.777 228.841C375.877 228.602 374.498 228.123 372.789 227.597C370.998 227.046 372.152 227.116 370.307 226.881C368.673 226.673 367.748 226.888 365.77 226.245C364.001 225.67 362.366 225.274 360.557 224.852C358.9 224.467 357.563 223.774 356.022 223.323C357.958 223.89 353.535 222.137 353.727 222.604L353.744 222.634L353.728 222.618C353.248 222.077 352.692 220.989 351.741 220.821L351.546 220.799C354.674 225.601 340.923 220.527 340.012 220.25C332.413 217.938 324.629 212.69 316.688 212.207C308.936 211.735 301.417 217.018 295.176 220.936C287.639 225.668 280.136 230.439 272.628 235.219C256.032 245.784 238.061 255.234 219.436 261.655C210.377 264.778 201.094 267.283 191.905 269.988C187.762 271.207 183.238 271.708 179.279 273.457C176.603 274.639 172.746 278.176 170.042 275.043C168.953 277.784 163.665 277.644 161.423 277.729C161.078 277.742 161.632 278.399 160.843 278.344C159.681 278.262 159.37 277.134 158.455 276.898C156.596 276.42 156.403 277.136 154.561 277.847C152.168 278.77 152.624 277.971 150.508 277.753C149.297 277.628 148.014 278.293 146.801 278.331C146.308 278.347 145.661 277.526 144.948 277.538C144.262 277.551 142.654 278.37 141.746 278.506C139.472 278.848 136.796 278.621 134.503 278.519C131.222 278.372 98.3596 275.442 100.718 268.572C96.7636 272.22 87.5916 266.257 83.4696 264.363C81.9346 263.658 81.8356 262.973 80.9706 262.178C81.2096 261.223 80.8006 260.797 79.7436 260.899C79.5176 260.873 79.2906 260.848 79.0656 260.822C77.2546 259.899 76.6096 259.92 75.1676 258.301C73.2446 256.14 69.7046 254.186 68.7076 251.37C68.4406 250.614 68.7246 249.309 68.4526 248.715C68.1046 247.953 67.1886 248.041 66.9766 247.423C66.9026 247.207 67.2566 245.79 67.2306 245.767C65.5676 244.375 63.2236 245.035 61.2966 243.364C55.9716 238.743 52.7586 229.474 51.2266 222.892C47.2196 205.677 45.8516 188.367 53.6286 172.084C57.4086 164.167 62.0366 156.637 67.1466 149.514C68.5606 147.544 70.0416 144.943 71.8456 143.28C72.6556 142.533 73.7156 142.38 74.1106 141.933C76.2186 139.548 77.3116 136.481 80.1366 134.16C83.2816 131.575 86.3826 128.918 89.8566 126.78C93.0446 124.817 97.0146 123.55 99.9376 121.714C100.74 121.21 100.464 120.415 101.335 119.816C102.258 119.181 103.452 119.132 104.498 118.823C105.739 118.458 107.278 117.785 108.566 117.674C110.971 117.465 111.778 118.154 113.592 119.862C113.592 113.289 125.696 112.374 130.592 112.362C132.851 112.356 144.203 111.343 143.985 114.803C146.571 111.385 154.433 113.928 157.853 114.953C161.957 116.182 164.553 119.189 167.186 122.401C167.674 121.383 168.163 120.364 168.652 119.346C169.399 119.868 171.925 120.736 171.111 122.113C174.068 119.504 172.401 121.653 174.934 122.117C176.047 122.321 177.006 121.91 178.177 121.771C178.274 123.317 177.603 123.818 176.646 124.896C178.94 124.939 187.756 124.023 181.231 126.906C182.103 128.466 186.241 127.918 187.696 128.128C188.467 128.239 190.388 128.279 190.848 128.843C191.151 129.214 190.618 130.24 190.686 130.331C191.308 131.174 190.016 131.607 191.292 131.851C191.606 131.911 192.599 130.914 192.824 130.918C194.479 130.944 193.318 130.615 195.073 130.868C195.692 130.957 196.88 131.663 197.675 131.826C209.661 134.279 224.312 125.051 233.019 117.907C243.425 109.371 252.483 100.247 264.993 94.7064C277.095 89.3474 290.577 85.1214 303.439 82.0564C327.224 76.3884 350.844 76.2894 374.245 84.1244ZM677.013 630.326C677.399 630.531 677.783 630.736 678.168 630.94C678.716 630.662 679.265 630.385 679.813 630.107C678.241 629.361 678.133 629.034 677.013 630.326ZM804.744 596.328C801.861 598.148 799.386 602.257 796.862 604.709C793.319 608.151 789.614 611.423 785.916 614.696C790.18 616.175 796.365 622.161 800.978 619.449C803.263 618.106 804.706 614.156 806.152 612.061C808.39 608.817 811.006 605.772 813.636 602.843C816.347 599.824 807.766 594.42 804.744 596.328ZM534.45 534.193C535.593 534.672 538.095 537.43 536.934 538.396C535.758 537.036 534.179 536.053 534.45 534.193ZM167.495 490.547C165.408 492.35 163.055 496.115 161.602 498.486C159.965 501.157 159.907 502.503 162.407 504.285C167.238 507.73 174.256 508.741 179.859 510.348C182.85 511.206 186.548 513.364 189.089 510.636C191.605 507.936 191.611 502.906 192.743 499.558C193.66 496.846 194.641 494.157 195.593 491.458C190.312 491.989 185.001 492.026 179.809 490.844C176.04 489.987 170.828 487.666 167.495 490.547ZM258.712 346.181C254.448 351.972 250.644 358.106 247.29 364.467C241.74 374.996 237.426 386.175 234.693 397.765C232.756 405.976 229.926 417.52 234.349 425.397C243.984 442.557 263.54 393.021 266.525 387.84C268.302 384.755 271.06 381.446 274.115 385.412C276.621 388.667 275.805 393.884 275.921 397.717C276.267 409.109 274.677 422.752 279.232 433.471C280.727 436.989 284.687 442.07 289.157 440.472C293.164 439.038 295.166 432.137 296.405 428.582C300.324 417.335 303.104 403.588 303.231 391.687C303.256 389.296 301.111 373.49 306.642 376.987C310.26 379.273 310.112 390.37 310.463 394.001C311.838 408.187 314.64 432.278 332.241 434.665C336.116 435.191 340.502 434.274 342.771 430.79C345.591 426.461 342.755 420.64 341.767 416.09C340.064 408.246 338.135 400.16 337.965 392.085C337.861 387.135 338.348 378.906 345.301 380.816C353.68 383.117 357.224 394.078 366.634 394.445C366.643 392.239 365.422 390.441 364.387 388.598C361.039 382.641 354.941 377.54 352.877 370.95C352.2 368.788 352.904 365.537 351.565 363.735C350.3 362.034 347.445 361.598 345.536 361.213C332.827 358.646 320.333 355.171 307.683 352.212C294.16 349.05 281.622 345.632 268.958 340.064C263.252 337.555 261.949 341.786 258.712 346.181ZM561.927 435.033C563.793 435.919 565.643 436.842 567.531 437.68C569.173 438.411 569.817 437.829 570.471 436.295C569.286 436.05 562.616 433.68 561.927 435.033ZM481.849 242.864C457.667 243.573 434.025 243.882 410.191 248.473C398.792 250.669 387.618 253.213 376.439 256.331C371.717 257.648 367.554 259.021 363.436 261.648C361.905 262.624 357.852 265.689 357.23 262.186C355.194 264.137 351.224 270.093 347.969 266.784C347.398 269.176 345.619 269.102 343.883 269.915C343.272 270.201 342.939 271.174 342.153 271.527C341.955 271.615 341.889 270.248 341.601 270.225C340.564 270.143 339.746 272.327 339.15 272.884C337.715 274.219 336.371 274.83 334.469 275.315C333.643 275.591 332.796 275.768 331.929 275.846C330.908 276.265 330.296 275.964 330.094 274.943C328.685 274.966 327.654 275.478 326.178 276.146C329.363 276.876 324.005 277.679 323.293 277.76C323.205 280.14 325.239 278.632 326.553 279.125C325.945 282.112 320.409 284.392 318.131 285.857C317.742 285.029 317.353 284.201 316.963 283.374C316.333 283.983 315.845 284.684 315.496 285.477C315.261 286.437 314.579 286.769 313.451 286.473C312.395 287.311 312.237 286.923 311.588 288.103C310.917 289.326 312.901 291.706 310.019 290.681C310.019 294.743 306.246 292.281 306.907 291.227C304.053 290.951 302.835 296.175 303.155 298.213C301.79 296.861 300.953 297.032 299.582 298.088L299.461 298.183L299.533 298.132C300.587 297.418 299.503 300.336 299.597 300.302L299.61 300.29C296.712 304.109 296.985 299.833 297.882 297.58C295.918 298.367 295.546 300.497 293.97 301.699C292.567 302.769 292.172 302.272 290.965 302.432C289.106 302.678 289.667 301.149 288.852 303.197C288.507 304.065 289.03 305.62 289.03 306.567C289.836 305.465 289.531 303.722 290.987 303.091C290.552 306.284 284.342 317.254 281.731 310.789C279.191 312.554 281.99 314.488 280.323 316.852C279.083 315.656 278.786 313.753 278.925 312.123C278.146 313.159 278.171 314.468 277.561 315.516C276.925 316.609 276.259 316.697 275.952 317.885C275.487 319.689 277.076 318.805 276.237 320.719C275.816 321.68 273.844 322.521 273.068 323.062C270.35 324.956 267.602 327.15 270.24 330.298C274.371 335.225 285.256 335.789 291.102 336.617C303.568 338.383 315.717 341.316 327.999 344.033C335.395 345.67 342.639 347.492 349.893 349.675C355.102 351.241 362.297 352.215 365.046 357.608C379.566 343.726 398.928 336.483 416.848 328.157C436.258 319.14 456.302 310.767 476.864 304.741C495.095 299.397 513.793 297.369 532.627 295.527C537.59 295.041 545.243 293.798 549.666 296.847C552.397 298.729 552.523 301.579 550.432 304.097C549.3 305.461 548.078 305.107 547.386 307.539C546.85 309.419 547.144 310.843 547.635 312.704C546.379 311.721 544.13 312.307 543.487 310.571L543.424 310.377L543.365 310.583C542.506 313.971 548.497 314.439 546.66 318.501L546.541 318.749C545.906 319.99 545.904 316.009 545.345 315.98C543.825 315.901 542.58 319.451 541.955 320.435C544.782 320.435 543.706 322.491 542.189 323.529C541.106 324.27 539.28 324.485 538.022 325.097C535.513 326.321 533.307 328.115 530.733 329.282C527.915 330.561 525.437 330.64 522.638 331.399C522.205 331.516 520.486 332.16 520.312 332.175C520.075 332.196 520.021 332.922 519.819 332.95C518.03 333.203 516.678 331.542 514.946 332.219C514.283 332.479 514.627 334.098 514.052 334.465C513.417 334.87 511.618 334.353 510.85 334.31C509.002 334.204 508.718 333.96 507.252 334.817C504.732 336.289 503.449 338.279 500.052 338.64C497.396 338.923 495.684 338.421 493.156 339.417C490.598 340.424 488.175 340.647 485.682 341.322C485.366 341.408 485.282 342.489 485.025 342.564C484.2 342.808 483.214 342.622 482.426 342.864C480.616 343.421 479.147 343.917 477.466 344.916C470.078 349.307 461.949 355.898 456.156 362.226C453.511 365.115 446.134 372.392 448.54 376.574C450.083 379.257 455.411 380.561 458.068 381.694C462.031 383.385 466.129 384.616 470.135 386.182C475.116 388.13 479.635 391.156 484.716 392.852C489.62 394.489 494.867 394.812 499.933 395.686C521.851 399.466 543.324 405.545 565.255 409.315C577.282 411.383 589.561 413.851 601.777 411.902C612.543 410.184 622.852 405.422 631.451 398.769C647.099 386.663 658.003 369.474 663.487 350.565C664.619 346.659 664.857 336.888 668.511 334.498C671.555 332.508 673.152 336.894 675.127 338.627C678.336 341.442 683.039 342.531 686.9 344.137C696.458 348.112 705.142 352.308 715.243 354.997C725.485 357.722 735.869 359.859 746.223 362.106C767.211 366.661 787.245 370.969 808.817 371.039C830.164 371.107 851.592 371.91 872.702 367.978C891.168 364.539 909.741 355.144 923.545 342.388C930.516 335.947 935.892 327.812 941.373 320.123C944.314 315.999 947.046 311.724 949.342 307.205C951.03 303.884 953.932 299.075 954.229 295.309C954.493 291.944 952.526 292.422 949.164 292.078C943.993 291.55 938.8 291.215 933.626 290.683C923.19 289.613 912.79 288.248 902.359 287.139C891.714 286.007 881.139 284.472 870.798 281.652C867.706 280.809 865.421 279.746 863.238 282.75C861.831 284.684 861.857 289.097 858.92 285.857C853.274 292.986 845.018 297.255 837.303 301.729C828.956 306.57 820.844 311.897 811.995 315.806C792.933 324.23 771.927 323.562 751.696 320.863C731.142 318.12 710.312 314.582 690.997 306.76C682.137 303.173 674.525 297.715 666.58 292.507C662.838 290.054 658.957 288.036 654.984 285.992C650.504 283.688 647.767 280.272 643.717 277.609C640.986 286.498 630.486 289.554 622.193 289.951C611.838 290.447 603.467 285.503 597.187 277.473C591.973 270.807 590.96 260.836 582.89 257.187C573.683 253.025 562.891 251.371 553.037 249.435C529.895 244.89 505.431 242.171 481.849 242.864ZM604.608 311.205C607.211 312.369 614.779 321.074 608.774 321.201C604.958 321.282 602.715 316.495 598.5 317.22C596.609 317.546 593.783 318.198 593.318 319.657C592.16 323.29 597.506 325.63 599.817 326.639C603.376 328.193 606.303 329.756 608.246 333.311C611.23 338.773 612.013 347.61 605.033 350.053C599.844 351.869 593.36 350.46 588.239 349.032C583.923 347.828 580.627 343.365 582.614 338.93C583.177 337.674 584.684 335.459 586.44 336.289C587.835 336.949 587.156 338.199 587.584 339.318C589.299 343.802 602.123 350.194 605.076 343.417C608.677 335.153 594.986 332.664 590.806 329.901C585.404 326.33 585.262 320.221 589.384 315.553C592.996 311.462 599.359 308.859 604.608 311.205ZM627.227 339.211C627.011 341.158 626.743 343.176 626.405 345.105C626.113 346.782 626.127 348.544 624.2 349.15C622.93 349.55 621.691 348.201 620.467 349.097C619.111 350.091 619.76 342.862 619.821 342.456C620.222 339.76 620.952 334.286 623.545 332.614C627.931 329.784 627.488 336.837 627.227 339.211ZM626.947 327.913C622.293 330.86 621.085 322.502 622.937 319.784C627.534 313.036 634.285 323.27 626.947 327.913ZM532.39 323.805C533.72 324.793 533.28 324.249 533.28 326.879C531.733 326.947 531.968 324.828 532.39 323.805ZM537.648 321.53C537.2 322.574 539.214 323.827 539.863 323.99C539.903 323.653 538.92 318.569 537.648 321.53ZM285.115 306.26C283.877 308.054 284.576 309.153 286.544 308.448L286.707 308.386L285.115 306.26ZM309.986 289.016L308.808 289.514C308.252 290.045 307.698 290.575 307.143 291.105C308.762 290.79 309.886 291.033 309.986 289.016ZM316.51 286.496C315.699 284.842 312.912 288.123 312.85 288.891C313.5 288.506 317.454 288.422 316.51 286.496ZM319.127 280.651C318.45 281.604 318.588 282.368 319.541 282.943C320.332 281.886 320.933 280.731 321.342 279.476C320.286 278.709 319.503 279.747 319.127 280.651ZM852.746 162.577C850.705 163.493 851.772 166.647 851.971 168.356C852.918 176.496 854.424 184.555 855.358 192.693C856.669 204.139 856.854 215.723 859.002 227.067C860.962 237.412 864.266 247.458 866.011 257.851C867.178 264.804 864.95 272.838 873.244 274.947C880.702 276.844 889.205 276.947 896.851 277.781C906.701 278.855 916.566 279.383 926.459 279.862C931.142 280.088 935.969 280.147 940.606 280.857C943.338 281.275 946.738 283.086 948.839 280.558C950.883 278.1 950.888 271.844 951.526 268.706C952.368 264.563 953.124 260.398 953.537 256.187C954.471 246.653 953.097 237.212 951.834 227.772C950.474 217.596 949.43 207.377 948.023 197.211C947.115 190.658 947.219 180.076 942.71 174.787C938.598 187.066 937.484 200.103 937.278 212.978C937.233 215.742 935.425 231.627 930.617 223.883C929.281 221.729 929.259 220.499 927.182 218.678C925.041 216.801 924.292 215.3 923.568 212.458C922.256 207.31 922.045 202.783 919.208 198.154C913.433 188.732 911.092 177.067 902.493 169.461C902.407 178.302 901.129 187.864 902.773 196.597C903.807 202.085 908.042 209.984 904.55 215.413C902.809 218.121 901.802 217.313 899.753 215.953C898.44 215.081 898.641 214.675 896.992 213.802C895.419 212.97 894.181 213.009 892.692 211.847C887.422 207.735 887.006 200.59 885.282 194.674C881.48 181.614 868.335 173.548 858.268 165.47C857.172 164.591 854.43 161.822 852.746 162.577ZM654.099 189.036C646.381 192.118 638.423 193.292 630.222 191.551C630.229 193.353 632.829 196.281 630.821 197.317C630.342 197.564 627.609 196.381 627.077 196.243C624.119 195.476 620.133 194.157 617.041 194.786C613.77 195.452 613.883 197.571 616.021 199.971C619.022 203.34 626.555 203.477 626.64 209.067C626.676 211.484 625.186 214.512 624.867 217.005C624.391 220.733 623.871 224.431 622.995 228.092C621.489 234.386 619.052 240.373 616.148 246.146C613.646 251.119 610.604 256.301 605.945 259.551C602.908 261.669 604.078 260.713 604.674 263.835C605.073 265.926 605.006 267.483 602.306 266.967C601.789 266.808 601.273 266.65 600.757 266.491C607.089 276.867 623.102 283.407 634.065 276.483C629.442 272.757 635.716 266.261 638.365 263.509C642.332 259.386 646.49 254.642 650.744 250.878C657.257 245.116 665.782 247.92 673.488 245.496C681.287 243.043 686.961 237.508 692.002 231.322C696.493 225.813 702.446 219.071 703.053 211.614C703.172 210.154 702.463 208.442 702.721 207.061C702.983 205.653 703.836 205.47 704.281 204.548C705.192 202.651 705.413 200.698 705.558 198.526C706.03 191.438 703.778 190.325 697.121 188.494C693.242 187.426 689.31 186.588 685.425 185.545C681.716 184.55 678.409 182.635 674.753 181.567C667.056 179.318 660.877 186.33 654.099 189.036ZM673.935 233.578C680.057 237.292 670.406 239.67 666.843 238.028C662.031 235.81 670.516 231.504 673.935 233.578ZM685.465 202.697C691.022 209.336 697.199 222.83 685.03 225.561C681.274 226.404 675.463 227.766 671.686 226.733C666.291 225.256 667.7 218.216 673.081 217.907C676.269 217.724 683.585 220.246 685.479 216.543C686.507 214.535 684.17 211.344 683.815 209.34C683.358 206.761 683.776 204.7 685.465 202.697ZM353.744 222.634L353.748 222.641C353.768 222.668 353.799 222.701 353.842 222.739L353.864 222.757L353.823 222.718L353.744 222.634ZM696.472 205.071C700.331 205.062 698.418 213.259 696.503 214.659C693.066 217.171 691.599 205.081 696.472 205.071ZM671.032 211.251C666.554 211.794 667.563 201.078 671.643 200.749C676.998 200.316 676.209 210.624 671.032 211.251ZM709.769 193.465C709.233 194.557 709.643 205.189 710.926 205.39C711.271 202.793 711.08 200.182 711.044 197.574L711.038 196.915C711.068 196.956 711.28 190.384 709.769 193.465Z" fill="black"/>
</svg>
